<svg width="42" height="43" viewBox="0 0 42 43" fill="none" xmlns="http://www.w3.org/2000/svg">
<path d="M1 20.9874C1 13.252 1 9.3833 3.344 6.98125C5.688 4.5792 9.458 4.57715 17 4.57715H25C32.542 4.57715 36.314 4.57715 38.656 6.98125C40.998 9.38535 41 13.252 41 20.9874V25.09C41 32.8254 41 36.6941 38.656 39.0961C36.312 41.4982 32.542 41.5002 25 41.5002H17C9.458 41.5002 5.686 41.5002 3.344 39.0961C1.002 36.692 1 32.8254 1 25.09V20.9874Z" stroke="black" stroke-width="1.5"/>
<path d="M11 4.57692V1.5M31 4.57692V1.5M2 14.8333H40" stroke="black" stroke-width="1.5" stroke-linecap="round"/>
<path d="M33 31.2437C33 31.7877 32.7893 32.3095 32.4142 32.6942C32.0391 33.0789 31.5304 33.295 31 33.295C30.4696 33.295 29.9609 33.0789 29.5858 32.6942C29.2107 32.3095 29 31.7877 29 31.2437C29 30.6997 29.2107 30.1779 29.5858 29.7932C29.9609 29.4085 30.4696 29.1924 31 29.1924C31.5304 29.1924 32.0391 29.4085 32.4142 29.7932C32.7893 30.1779 33 30.6997 33 31.2437ZM33 23.0386C33 23.5826 32.7893 24.1044 32.4142 24.4891C32.0391 24.8738 31.5304 25.0899 31 25.0899C30.4696 25.0899 29.9609 24.8738 29.5858 24.4891C29.2107 24.1044 29 23.5826 29 23.0386C29 22.4946 29.2107 21.9728 29.5858 21.5881C29.9609 21.2034 30.4696 20.9873 31 20.9873C31.5304 20.9873 32.0391 21.2034 32.4142 21.5881C32.7893 21.9728 33 22.4946 33 23.0386ZM23 31.2437C23 31.7877 22.7893 32.3095 22.4142 32.6942C22.0391 33.0789 21.5304 33.295 21 33.295C20.4696 33.295 19.9609 33.0789 19.5858 32.6942C19.2107 32.3095 19 31.7877 19 31.2437C19 30.6997 19.2107 30.1779 19.5858 29.7932C19.9609 29.4085 20.4696 29.1924 21 29.1924C21.5304 29.1924 22.0391 29.4085 22.4142 29.7932C22.7893 30.1779 23 30.6997 23 31.2437ZM23 23.0386C23 23.5826 22.7893 24.1044 22.4142 24.4891C22.0391 24.8738 21.5304 25.0899 21 25.0899C20.4696 25.0899 19.9609 24.8738 19.5858 24.4891C19.2107 24.1044 19 23.5826 19 23.0386C19 22.4946 19.2107 21.9728 19.5858 21.5881C19.9609 21.2034 20.4696 20.9873 21 20.9873C21.5304 20.9873 22.0391 21.2034 22.4142 21.5881C22.7893 21.9728 23 22.4946 23 23.0386ZM13 31.2437C13 31.7877 12.7893 32.3095 12.4142 32.6942C12.0391 33.0789 11.5304 33.295 11 33.295C10.4696 33.295 9.96086 33.0789 9.58579 32.6942C9.21071 32.3095 9 31.7877 9 31.2437C9 30.6997 9.21071 30.1779 9.58579 29.7932C9.96086 29.4085 10.4696 29.1924 11 29.1924C11.5304 29.1924 12.0391 29.4085 12.4142 29.7932C12.7893 30.1779 13 30.6997 13 31.2437ZM13 23.0386C13 23.5826 12.7893 24.1044 12.4142 24.4891C12.0391 24.8738 11.5304 25.0899 11 25.0899C10.4696 25.0899 9.96086 24.8738 9.58579 24.4891C9.21071 24.1044 9 23.5826 9 23.0386C9 22.4946 9.21071 21.9728 9.58579 21.5881C9.96086 21.2034 10.4696 20.9873 11 20.9873C11.5304 20.9873 12.0391 21.2034 12.4142 21.5881C12.7893 21.9728 13 22.4946 13 23.0386Z" fill="black"/>
</svg>
