<svg width="40" height="40" viewBox="0 0 40 40" fill="none" xmlns="http://www.w3.org/2000/svg">
<path d="M11.5002 1.48197C11.5002 1.08906 11.3422 0.712236 11.0609 0.434404C10.7796 0.156573 10.398 0.000488281 10.0002 0.000488281C9.60238 0.000488281 9.22085 0.156573 8.93954 0.434404C8.65824 0.712236 8.5002 1.08906 8.5002 1.48197V4.60296C5.6202 4.83012 3.7322 5.38715 2.3442 6.75999C0.954203 8.13086 0.390203 9.99753 0.158203 12.84H39.8422C39.6102 9.99555 39.0462 8.13086 37.6562 6.75999C36.2682 5.38715 34.3782 4.83012 31.5002 4.60098V1.48197C31.5002 1.08906 31.3422 0.712236 31.0609 0.434404C30.7796 0.156573 30.398 0.000488281 30.0002 0.000488281C29.6024 0.000488281 29.2208 0.156573 28.9395 0.434404C28.6582 0.712236 28.5002 1.08906 28.5002 1.48197V4.47061C27.1702 4.44493 25.6782 4.44493 24.0002 4.44493H16.0002C14.3222 4.44493 12.8302 4.44493 11.5002 4.47061V1.48197Z" fill="black"/>
<path fill-rule="evenodd" clip-rule="evenodd" d="M0 20.2472C0 18.5899 2.23517e-08 17.1163 0.026 15.8027H39.974C40 17.1163 40 18.5899 40 20.2472V24.1978C40 31.6467 40 35.3721 37.656 37.6852C35.312 39.9983 31.542 40.0003 24 40.0003H16C8.458 40.0003 4.686 40.0003 2.344 37.6852C0.00199986 35.3701 0 31.6467 0 24.1978V20.2472ZM30 24.1978C30.5304 24.1978 31.0391 23.9897 31.4142 23.6192C31.7893 23.2488 32 22.7464 32 22.2225C32 21.6986 31.7893 21.1962 31.4142 20.8257C31.0391 20.4553 30.5304 20.2472 30 20.2472C29.4696 20.2472 28.9609 20.4553 28.5858 20.8257C28.2107 21.1962 28 21.6986 28 22.2225C28 22.7464 28.2107 23.2488 28.5858 23.6192C28.9609 23.9897 29.4696 24.1978 30 24.1978ZM30 32.099C30.5304 32.099 31.0391 31.8909 31.4142 31.5205C31.7893 31.15 32 30.6476 32 30.1237C32 29.5998 31.7893 29.0974 31.4142 28.727C31.0391 28.3565 30.5304 28.1484 30 28.1484C29.4696 28.1484 28.9609 28.3565 28.5858 28.727C28.2107 29.0974 28 29.5998 28 30.1237C28 30.6476 28.2107 31.15 28.5858 31.5205C28.9609 31.8909 29.4696 32.099 30 32.099ZM22 22.2225C22 22.7464 21.7893 23.2488 21.4142 23.6192C21.0391 23.9897 20.5304 24.1978 20 24.1978C19.4696 24.1978 18.9609 23.9897 18.5858 23.6192C18.2107 23.2488 18 22.7464 18 22.2225C18 21.6986 18.2107 21.1962 18.5858 20.8257C18.9609 20.4553 19.4696 20.2472 20 20.2472C20.5304 20.2472 21.0391 20.4553 21.4142 20.8257C21.7893 21.1962 22 21.6986 22 22.2225ZM22 30.1237C22 30.6476 21.7893 31.15 21.4142 31.5205C21.0391 31.8909 20.5304 32.099 20 32.099C19.4696 32.099 18.9609 31.8909 18.5858 31.5205C18.2107 31.15 18 30.6476 18 30.1237C18 29.5998 18.2107 29.0974 18.5858 28.727C18.9609 28.3565 19.4696 28.1484 20 28.1484C20.5304 28.1484 21.0391 28.3565 21.4142 28.727C21.7893 29.0974 22 29.5998 22 30.1237ZM10 24.1978C10.5304 24.1978 11.0391 23.9897 11.4142 23.6192C11.7893 23.2488 12 22.7464 12 22.2225C12 21.6986 11.7893 21.1962 11.4142 20.8257C11.0391 20.4553 10.5304 20.2472 10 20.2472C9.46957 20.2472 8.96086 20.4553 8.58579 20.8257C8.21071 21.1962 8 21.6986 8 22.2225C8 22.7464 8.21071 23.2488 8.58579 23.6192C8.96086 23.9897 9.46957 24.1978 10 24.1978ZM10 32.099C10.5304 32.099 11.0391 31.8909 11.4142 31.5205C11.7893 31.15 12 30.6476 12 30.1237C12 29.5998 11.7893 29.0974 11.4142 28.727C11.0391 28.3565 10.5304 28.1484 10 28.1484C9.46957 28.1484 8.96086 28.3565 8.58579 28.727C8.21071 29.0974 8 29.5998 8 30.1237C8 30.6476 8.21071 31.15 8.58579 31.5205C8.96086 31.8909 9.46957 32.099 10 32.099Z" fill="black"/>
</svg>
