<svg width="40" height="40" viewBox="0 0 40 40" fill="none" xmlns="http://www.w3.org/2000/svg">
<path d="M39.612 14.7697C38.9568 12.7071 37.5375 10.998 35.6658 10.0174C33.7941 9.0369 31.623 8.86511 29.629 9.53978C28.9173 9.74853 28.2415 10.0713 27.6263 10.4965C27.9657 9.27167 28.0257 7.98202 27.8014 6.72915C27.5771 5.47629 27.0747 4.29447 26.3339 3.27683C25.593 2.25919 24.6339 1.43355 23.5321 0.864992C22.4304 0.296432 21.2161 0.000488281 19.985 0.000488281C18.7539 0.000488281 17.5396 0.296432 16.4378 0.864992C15.3361 1.43355 14.377 2.25919 13.6361 3.27683C12.8953 4.29447 12.3929 5.47629 12.1686 6.72915C11.9443 7.98202 12.0043 9.27167 12.3437 10.4965C11.7304 10.0601 11.0545 9.72653 10.3409 9.50789C9.35568 9.17496 8.31671 9.04614 7.28335 9.12878C6.24998 9.21143 5.24247 9.50392 4.31832 9.98957C3.39418 10.4752 2.5715 11.1445 1.89727 11.9592C1.22304 12.7739 0.710449 13.7181 0.388772 14.7378C0.0670957 15.7575 -0.0573696 16.8329 0.0224831 17.9024C0.102336 18.9719 0.384942 20.0147 0.854167 20.9711C1.32339 21.9276 1.97005 22.7791 2.75721 23.4769C3.54437 24.1747 4.45663 24.7053 5.44189 25.0382C6.16356 25.2587 6.90855 25.3872 7.66033 25.4209C7.08606 25.8976 6.56887 26.4435 6.11974 27.0472C5.50629 27.9116 5.06481 28.8935 4.82091 29.9359C4.577 30.9782 4.53554 32.0604 4.69892 33.1195C4.8623 34.1785 5.22728 35.1935 5.77267 36.1055C6.31805 37.0174 7.033 37.8082 7.87601 38.4319C9.57954 39.706 11.7 40.2331 13.7768 39.8987C15.8536 39.5644 17.7191 38.3955 18.9682 36.646C19.4005 36.0201 19.743 35.3326 19.985 34.6051C20.2377 35.3386 20.5868 36.0189 21.0326 36.646C21.8062 37.7308 22.8247 38.6031 23.9991 39.1867C25.1734 39.7703 26.468 40.0475 27.7697 39.994C29.0714 39.9405 30.3407 39.558 31.4666 38.8799C32.5926 38.2018 33.5411 37.2488 34.2292 36.1039C35.0502 34.7304 35.4557 33.1343 35.3937 31.5205C35.3316 29.9066 34.8049 28.3489 33.8811 27.0472C33.4319 26.4435 32.9147 25.8976 32.3405 25.4209C33.0819 25.3847 33.8164 25.2562 34.5281 25.0382C35.5153 24.7125 36.4306 24.1879 37.2211 23.4947C38.0117 22.8014 38.6619 21.9532 39.1345 20.9988C39.607 20.0444 39.8924 19.0027 39.9744 17.9336C40.0564 16.8646 39.9332 15.7893 39.612 14.7697Z" fill="black"/>
<path d="M19.9841 25.6447C22.5353 25.6447 24.6058 23.5177 24.6058 20.8932C24.6058 18.2686 22.5353 16.1416 19.9841 16.1416C17.4328 16.1416 15.3623 18.2686 15.3623 20.8932C15.3623 23.5177 17.4328 25.6447 19.9841 25.6447Z" fill="white"/>
</svg>
