<svg width="42" height="42" viewBox="0 0 42 42" fill="none" xmlns="http://www.w3.org/2000/svg">
<path d="M11.999 21.0001H23.9992M11.999 13H17.9991M13.999 37.0003C16.0991 38.7403 18.6291 39.8483 21.5271 40.0383C23.8092 40.1883 26.1932 40.1883 28.4732 40.0383C29.2879 39.982 30.0892 39.8012 30.8492 39.5023C31.6693 39.1683 32.0773 39.0023 32.2873 39.0283C32.4953 39.0523 32.7973 39.2723 33.4013 39.7123C34.4673 40.4883 35.8093 41.0443 37.8013 40.9983C38.8073 40.9743 39.3113 40.9603 39.5354 40.5823C39.7614 40.2023 39.4813 39.6783 38.9193 38.6283C38.1393 37.1723 37.6473 35.5063 38.3953 34.1703C39.6814 32.2622 40.7754 30.0042 40.9354 27.5642C41.0214 26.2542 41.0214 24.8961 40.9354 23.5841C40.8311 22.0009 40.4464 20.4488 39.7994 19.0001" stroke="black" stroke-width="2" stroke-linecap="round" stroke-linejoin="round"/>
<path d="M21.6902 31.9744C28.8023 31.5064 34.4664 25.8143 34.9304 18.6682C35.0224 17.2702 35.0224 15.8222 34.9304 14.4242C34.4664 7.28007 28.8023 1.58801 21.6902 1.12C19.2642 0.96 16.7302 0.96 14.3101 1.12C7.19805 1.58801 1.53398 7.28007 1.06998 14.4242C0.977976 15.8242 0.977976 17.2702 1.06998 18.6682C1.23798 21.2722 2.39999 23.6803 3.76801 25.7163C4.56202 27.1403 4.03801 28.9163 3.21 30.4704C2.614 31.5904 2.31599 32.1504 2.556 32.5544C2.796 32.9584 3.33 32.9724 4.40002 32.9964C6.51404 33.0484 7.94006 32.4544 9.07207 31.6264C9.71408 31.1584 10.0361 30.9244 10.2581 30.8964C10.4781 30.8704 10.9141 31.0464 11.7841 31.4024C12.5681 31.7224 13.4761 31.9184 14.3101 31.9744C16.7302 32.1344 19.2642 32.1344 21.6902 31.9744Z" stroke="black" stroke-width="2" stroke-linecap="round" stroke-linejoin="round"/>
</svg>
