<svg width="41" height="41" viewBox="0 0 41 41" fill="none" xmlns="http://www.w3.org/2000/svg">
<path d="M20.6892 30.9744C27.8013 30.5064 33.4654 24.8143 33.9294 17.6682C34.0214 16.2702 34.0214 14.8222 33.9294 13.4242C33.4654 6.28007 27.8013 0.588007 20.6892 0.120001C18.2632 -0.0400005 15.7292 -0.0400005 13.3092 0.120001C6.19707 0.588007 0.533006 6.28007 0.0690008 13.4242C-0.0230003 14.8242 -0.0230003 16.2702 0.0690008 17.6682C0.237003 20.2722 1.39902 22.6803 2.76703 24.7163C3.56104 26.1403 3.03704 27.9163 2.20903 29.4704C1.61302 30.5904 1.31502 31.1504 1.55502 31.5544C1.79502 31.9584 2.32903 31.9724 3.39904 31.9964C5.51307 32.0484 6.93908 31.4544 8.0711 30.6264C8.7131 30.1584 9.03511 29.9244 9.25711 29.8964C9.47711 29.8704 9.91312 30.0464 10.7831 30.4024C11.5671 30.7224 12.4751 30.9184 13.3092 30.9744C15.7292 31.1344 18.2632 31.1344 20.6892 30.9744Z" fill="black"/>
<path d="M12.998 36.0002C15.0981 37.7402 17.6281 38.8482 20.5261 39.0382C22.8082 39.1883 25.1922 39.1883 27.4722 39.0382C28.2869 38.9819 29.0882 38.8011 29.8482 38.5022C30.6683 38.1682 31.0763 38.0022 31.2863 38.0282C31.4943 38.0522 31.7963 38.2722 32.4003 38.7122C33.4663 39.4883 34.8083 40.0443 36.8003 39.9983C37.8063 39.9743 38.3103 39.9603 38.5344 39.5823C38.7604 39.2023 38.4803 38.6782 37.9183 37.6282C37.1383 36.1722 36.6463 34.5062 37.3943 33.1702C38.6804 31.2622 39.7744 29.0041 39.9344 26.5641C40.0204 25.2541 40.0204 23.8961 39.9344 22.5841C39.8301 21.0008 39.4454 19.4487 38.7984 18" stroke="black" stroke-width="2" stroke-linecap="round" stroke-linejoin="round"/>
<path d="M10.998 20.0001H22.9982M10.998 12H16.9981" stroke="white" stroke-width="2" stroke-linecap="round" stroke-linejoin="round"/>
</svg>
