<svg width="40" height="40" viewBox="0 0 40 40" fill="none" xmlns="http://www.w3.org/2000/svg">
<path d="M21.4135 0.586067L39.4102 18.5863C40.67 19.8463 39.7781 22.0003 37.9964 22.0003H35.9968V34.0004C35.9968 35.5917 35.3648 37.1179 34.2398 38.2431C33.1148 39.3683 31.5889 40.0005 29.9979 40.0005H27.9983V26.0003C27.9984 24.4699 27.4138 22.9973 26.364 21.8838C25.3143 20.7703 23.8789 20.1001 22.3514 20.0103L21.9994 20.0003H18.0002C16.4092 20.0003 14.8833 20.6324 13.7583 21.7577C12.6333 22.8829 12.0013 24.409 12.0013 26.0003V40.0005H10.0016C8.41064 40.0005 6.8848 39.3683 5.75979 38.2431C4.63478 37.1179 4.00275 35.5917 4.00275 34.0004V22.0003H2.00312C0.223454 22.0003 -0.67038 19.8463 0.589386 18.5863L18.5861 0.586067C18.961 0.211121 19.4696 0.000488281 19.9998 0.000488281C20.53 0.000488281 21.0385 0.211121 21.4135 0.586067ZM21.9994 24.0003C22.5298 24.0003 23.0384 24.211 23.4134 24.5861C23.7884 24.9612 23.999 25.4699 23.999 26.0003V40.0005H16.0005V26.0003C16.0006 25.5105 16.1804 25.0377 16.5059 24.6716C16.8313 24.3055 17.2798 24.0716 17.7662 24.0143L18.0002 24.0003H21.9994Z" fill="black"/>
</svg>
