<svg width="42" height="42" viewBox="0 0 42 42" fill="none" xmlns="http://www.w3.org/2000/svg">
<path d="M5.44444 21H1L21 1L41 21H36.5556M5.44444 21V36.5556C5.44444 37.7343 5.9127 38.8648 6.74619 39.6983C7.57969 40.5317 8.71015 41 9.88889 41H32.1111C33.2899 41 34.4203 40.5317 35.2538 39.6983C36.0873 38.8648 36.5556 37.7343 36.5556 36.5556V21" stroke="black" stroke-width="1.5" stroke-linecap="round" stroke-linejoin="round"/>
<path d="M14.333 40.9999V27.6666C14.333 26.4879 14.8013 25.3574 15.6348 24.5239C16.4683 23.6904 17.5987 23.2222 18.7775 23.2222H23.2219C24.4006 23.2222 25.5311 23.6904 26.3646 24.5239C27.1981 25.3574 27.6663 26.4879 27.6663 27.6666V40.9999" stroke="black" stroke-width="1.5" stroke-linecap="round" stroke-linejoin="round"/>
</svg>
