<svg width="42" height="42" viewBox="0 0 42 42" fill="none" xmlns="http://www.w3.org/2000/svg">
<path d="M21 21C24.3137 21 27 18.3137 27 15C27 11.6863 24.3137 9 21 9C17.6863 9 15 11.6863 15 15C15 18.3137 17.6863 21 21 21Z" stroke="black" stroke-width="2"/>
<path d="M32.9405 37C32.6205 31.216 30.8505 27 21.0005 27C11.1505 27 9.38055 31.216 9.06055 37" stroke="black" stroke-width="2" stroke-linecap="round"/>
<path d="M11 3.67603C14.0389 1.91747 17.489 0.994237 21 1.00003C32.046 1.00003 41 9.95402 41 21C41 32.046 32.046 41 21 41C9.95399 41 1 32.046 1 21C1 17.358 1.974 13.94 3.676 11" stroke="black" stroke-width="2" stroke-linecap="round"/>
</svg>
