<svg width="40" height="40" viewBox="0 0 40 40" fill="none" xmlns="http://www.w3.org/2000/svg">
<path fill-rule="evenodd" clip-rule="evenodd" d="M39.999 20.0005C39.999 31.0465 31.045 40.0005 19.999 40.0005C8.95302 40.0005 -0.000976562 31.0465 -0.000976562 20.0005C-0.000976562 8.95449 8.95302 0.000488281 19.999 0.000488281C31.045 0.000488281 39.999 8.95449 39.999 20.0005ZM25.999 14.0005C25.999 15.5918 25.3669 17.1179 24.2417 18.2431C23.1164 19.3683 21.5903 20.0005 19.999 20.0005C18.4077 20.0005 16.8816 19.3683 15.7564 18.2431C14.6312 17.1179 13.999 15.5918 13.999 14.0005C13.999 12.4092 14.6312 10.8831 15.7564 9.75785C16.8816 8.63263 18.4077 8.00049 19.999 8.00049C21.5903 8.00049 23.1164 8.63263 24.2417 9.75785C25.3669 10.8831 25.999 12.4092 25.999 14.0005ZM19.999 37.0005C23.4316 37.006 26.7846 35.9674 29.613 34.0225C30.821 33.1925 31.337 31.6125 30.633 30.3265C29.179 27.6605 26.179 26.0005 19.999 26.0005C13.819 26.0005 10.819 27.6605 9.36302 30.3265C8.66102 31.6125 9.17702 33.1925 10.385 34.0225C13.2134 35.9674 16.5665 37.006 19.999 37.0005Z" fill="black"/>
</svg>
